<mxfile host="app.diagrams.net" modified="2023-07-28T06:02:27.251Z" agent="Mozilla/5.0 (Windows NT 10.0; Win64; x64) AppleWebKit/537.36 (KHTML, like Gecko) Chrome/115.0.0.0 Safari/537.36" version="21.6.2" etag="3BZ0Q1zkx_alkq62j3Af" type="github">
  <diagram name="페이지-1" id="PVSs9ajAhlTPJMjXEvHj">
    <mxGraphModel>
      <root>
        <mxCell id="0" />
        <mxCell id="1" parent="0" />
      </root>
    </mxGraphModel>
  </diagram>
</mxfile>
